<svg xmlns="http://www.w3.org/2000/svg" viewBox="0 0 513 513"><defs><style>.cls-1{isolation:isolate;}.cls-2{fill:#fff;stroke:#000;}.cls-2,.cls-8{stroke-miterlimit:10;}.cls-3,.cls-4{fill:#ffb381;}.cls-4{mix-blend-mode:multiply;}.cls-5{fill:#3c1e05;}.cls-6{fill:#6b3f1c;}.cls-7{fill:#d1722e;}.cls-8{fill:none;stroke:#6b3f1c;}.cls-9{fill:#895837;}.cls-10{fill:#8a827f;}.cls-11{fill:#e5e5e5;}</style></defs><title>Asset 2</title><g class="cls-1"><g id="Layer_2" data-name="Layer 2"><g id="OBJECTS"><rect class="cls-2" x="0.5" y="0.5" width="512" height="512"/><rect class="cls-3" x="226.3" y="336.11" width="60.1" height="103.67"/><path class="cls-4" d="M226.3,369.84c8.67,7.17,19,11.34,30.05,11.34s21.39-4.17,30.06-11.34V336.11H226.3Z"/><path class="cls-3" d="M357.75,143.79C353.62,98.67,286,79,251.06,79.3c-38.56.33-91.87,18-96.14,64.55A796.91,796.91,0,0,0,151.27,228c.38,25.35-1.52,54.33,6.5,78.7,12.38,37.64,59.74,46.82,93,56.18a27.13,27.13,0,0,0,11.16,0c33.14-9.33,77.78-18,92.09-53.91,9.23-23.18,6.7-52.23,7.32-76.72C362.07,202.81,360.44,173.14,357.75,143.79Z"/><path class="cls-3" d="M158.92,215.08Z"/><path class="cls-3" d="M164.3,226.6a96.59,96.59,0,0,0-4.43-9.37,23.43,23.43,0,0,1-1-2.15c.15.37.44,1.17,1,2.64q-.82-2.21-1.84-4.32-4.8-6.27-.47-.51c-2.94-4.13-8.16-7.6-13.43-7.91a17.68,17.68,0,0,0-1.78-.59c-7.93-2-16,1.2-21.26,7.2C109.59,224.7,113,244.71,123,257.43a24.28,24.28,0,0,0,19.09,8.7c9.18-.39,16.56-6.14,20.87-14A29.41,29.41,0,0,0,164.3,226.6Z"/><path class="cls-3" d="M353.79,215.08Z"/><path class="cls-3" d="M349.8,252.12c4.31,7.87,11.69,13.62,20.87,14a24.24,24.24,0,0,0,19.08-8.7c10-12.72,13.37-32.73,1.85-45.84-5.28-6-13.33-9.2-21.26-7.2a18.56,18.56,0,0,0-1.78.59c-5.27.31-10.48,3.78-13.42,7.91q4.32-5.76-.47.51c-.69,1.41-1.3,2.85-1.85,4.32.53-1.47.83-2.27,1-2.64a23.43,23.43,0,0,1-1,2.15,92,92,0,0,0-4.42,9.37A29.37,29.37,0,0,0,349.8,252.12Z"/><ellipse class="cls-5" cx="203.94" cy="233.95" rx="12.33" ry="19.59"/><path class="cls-5" d="M325.12,234c0,10.82-5.52,19.59-12.33,19.59s-12.33-8.77-12.33-19.59,5.52-19.59,12.33-19.59S325.12,223.13,325.12,234Z"/><path class="cls-6" d="M354.13,100a118.61,118.61,0,0,0-36.87-31.43C288.27,35.69,224.1,26.11,184.72,36c-24,6.05-32.81,28.07-26.76,48A119.44,119.44,0,0,0,139.33,94.4c-23.47,16.07-39.19,50.08-9.6,69.61a57.74,57.74,0,0,0,6.82,3.84,186.9,186.9,0,0,0,10.62,52c4.42,12.57,22.18,7.54,19.8-5.46a198.79,198.79,0,0,1-3.5-40.44c19.38.42,39.56-6.09,56.61-13.39a186.18,186.18,0,0,0,34.08-19.23c2.44,8,8.45,14.83,19.51,19.26,28.28,11.3,47.77-13.38,53.84-40.48q2.22,2.32,4.31,4.75c18.58,21.73,14.79,63.71,10.06,89.53-2.38,13,15.38,18,19.8,5.46C374.89,182.26,379.78,133.62,354.13,100Z"/><path class="cls-6" d="M183.27,178.6c5.76-3.92,12-6.29,19-6.14,6.35.14,11.9,2.65,18,3.92a1.22,1.22,0,0,0,.93-2.23c-12-7.93-28.27-6.5-39.79,1.29-1.94,1.32-.11,4.49,1.84,3.16Z"/><path class="cls-6" d="M329.93,172.71c-11.52-7.79-27.8-9.23-39.79-1.29a1.22,1.22,0,0,0,.93,2.22c6.11-1.27,11.65-3.78,18-3.91,7-.15,13.26,2.23,19,6.14,1.94,1.32,3.78-1.85,1.84-3.16Z"/><path class="cls-7" d="M239.39,196.26a83,83,0,0,1,14.66,29.19c2.74,10,3.58,21.41-1,31a31.09,31.09,0,0,1-12.4,13.2,1.35,1.35,0,0,0-.48,1.84,52.87,52.87,0,0,0,9.39,9.69,32.59,32.59,0,0,0,6,3.91c2,1,4.14,1.8,6.42,1.39a.66.66,0,0,0,.15-1.2c-1.77-1.05-3.75-1.68-5.57-2.65A36,36,0,0,1,251,279a50.47,50.47,0,0,1-8.49-8.79L242,272a34.48,34.48,0,0,0,12-12.18,36.36,36.36,0,0,0,4.46-15.4c.85-11.5-2.67-23.12-7.7-33.35a85.4,85.4,0,0,0-10.24-16c-.65-.8-1.75.33-1.13,1.13Z"/><circle class="cls-8" cx="194.19" cy="248.98" r="50.1" transform="translate(-83.4 399.46) rotate(-80.51)"/><path class="cls-8" d="M371.82,249a50.1,50.1,0,1,1-50.1-50.1A50.1,50.1,0,0,1,371.82,249Z"/><path class="cls-8" d="M245.21,242.83s15-9.56,26,.69"/><path class="cls-9" d="M249.43,308.75a23.4,23.4,0,0,0,14.23,3.93,24.81,24.81,0,0,0,13.62-5.07,21.78,21.78,0,0,0,5.73-6.44c.29-.51-.45-1.14-.83-.65a27.94,27.94,0,0,1-11.13,8.93,23,23,0,0,1-13.51,1.31,22.28,22.28,0,0,1-7.45-3.14c-.71-.47-1.36.67-.66,1.13Z"/><path class="cls-10" d="M418.67,512.5c-2.35-15.24-8.83-29.61-15.17-41.71-9.17-17.54-18.89-30.31-33.79-37.61-34.88-17.12-72.63-23.06-108.91-31.31a11.71,11.71,0,0,0-4.45-.19,11.69,11.69,0,0,0-4.45.19c-36.29,8.25-74,14.19-108.92,31.31-14.91,7.3-24.62,20.07-33.79,37.61-6.33,12.1-12.8,26.47-15.15,41.71Z"/><path class="cls-11" d="M297.93,410a9.18,9.18,0,0,0-7.29-14.81H223a9.2,9.2,0,0,0-7.45,14.62c-9.05,2-18.1,4.17-27.1,6.65,8.24,23.68,36.22,41.12,69.5,41.12,32.89,0,60.6-17,69.19-40.31C317.46,414.51,307.7,412.17,297.93,410Z"/></g></g></g></svg>